<svg width="24" height="24" viewBox="0 0 24 24" fill="none" xmlns="http://www.w3.org/2000/svg">
<path d="M8.58282 9.33276L14.9468 15.6967" stroke="white" stroke-linecap="round" stroke-linejoin="round"/>
<path d="M20.25 20.2344H6.75656L3.27953 16.7573C3.14024 16.6181 3.02975 16.4527 2.95437 16.2707C2.87899 16.0887 2.84019 15.8937 2.84019 15.6967C2.84019 15.4997 2.87899 15.3047 2.95437 15.1227C3.02975 14.9407 3.14024 14.7753 3.27953 14.636L13.8861 4.02943C14.1674 3.74812 14.549 3.59009 14.9468 3.59009C15.3446 3.59009 15.7261 3.74812 16.0074 4.02943L20.2501 8.27207C20.3894 8.41136 20.4999 8.57672 20.5752 8.7587C20.6506 8.94069 20.6894 9.13575 20.6894 9.33273C20.6894 9.52971 20.6506 9.72477 20.5752 9.90675C20.4999 10.0887 20.3894 10.2541 20.2501 10.3934L10.4091 20.2344" stroke="white" stroke-linecap="round" stroke-linejoin="round"/>
</svg>
