<svg width="25" height="24" viewBox="0 0 25 24" fill="none" xmlns="http://www.w3.org/2000/svg">
<path d="M9.66667 20.2499H5.16667C4.96776 20.2499 4.77699 20.1709 4.63634 20.0302C4.49569 19.8896 4.41667 19.6988 4.41667 19.4999V15.3105C4.41667 15.2121 4.43607 15.1145 4.47376 15.0235C4.51145 14.9325 4.5667 14.8499 4.63634 14.7802L15.8863 3.53022C16.027 3.38956 16.2178 3.31055 16.4167 3.31055C16.6156 3.31055 16.8063 3.38956 16.947 3.53022L21.1363 7.71956C21.277 7.86021 21.356 8.05097 21.356 8.24989C21.356 8.4488 21.277 8.63956 21.1363 8.78022L9.66667 20.2499Z" stroke="white" stroke-linecap="round" stroke-linejoin="round"/>
<path d="M13.4167 6L18.6667 11.25" stroke="white" stroke-linecap="round" stroke-linejoin="round"/>
<path d="M20.9167 20.2499H9.66667L4.46439 15.0476" stroke="white" stroke-linecap="round" stroke-linejoin="round"/>
</svg>
