<svg width="24" height="24" viewBox="0 0 24 24" fill="none" xmlns="http://www.w3.org/2000/svg">
<path d="M20.25 8.56066V19.5C20.25 19.6989 20.171 19.8897 20.0303 20.0303C19.8897 20.171 19.6989 20.25 19.5 20.25H4.5C4.30109 20.25 4.11032 20.171 3.96967 20.0303C3.82902 19.8897 3.75 19.6989 3.75 19.5V4.5C3.75 4.30109 3.82902 4.11032 3.96967 3.96967C4.11032 3.82902 4.30109 3.75 4.5 3.75H15.4393C15.5378 3.75 15.6354 3.7694 15.7264 3.80709C15.8173 3.84478 15.9 3.90003 15.9697 3.96967L20.0303 8.03033C20.1 8.09997 20.1552 8.18265 20.1929 8.27365C20.2306 8.36464 20.25 8.46217 20.25 8.56066Z" stroke="white" stroke-linecap="round" stroke-linejoin="round"/>
<path d="M12.0005 17.2507C13.4503 17.2507 14.6255 16.0755 14.6255 14.6257C14.6255 13.176 13.4503 12.0007 12.0005 12.0007C10.5508 12.0007 9.37555 13.176 9.37555 14.6257C9.37555 16.0755 10.5508 17.2507 12.0005 17.2507Z" stroke="white" stroke-linecap="round" stroke-linejoin="round"/>
<path d="M15 9.00073H9V3.75073" stroke="white" stroke-linecap="round" stroke-linejoin="round"/>
</svg>
